<svg width="141" height="16" viewBox="0 0 141 16" fill="" xmlns="http://www.w3.org/2000/svg">
<rect width="141" height="16" fill=""/>
<g id="iPhone 13 Pro Max - 6" clip-path="">
<rect width="428" height="1533" transform="translate(-144 -17)" fill="white"/>
<g id="Group 353">
<path id="Vector" fill-rule="evenodd" clip-rule="evenodd" d="M111.656 5.25316H107.982V1.47007H111.656C112.706 1.47007 113.551 2.3142 113.551 3.36265C113.551 4.4111 112.706 5.25522 111.656 5.25522V5.25316ZM107.982 7.21384H110.311L116.518 15.7397H118.869L112.592 7.10033C114.257 6.66691 115.513 5.16235 115.513 3.36058C115.513 1.25956 113.759 -0.492676 111.656 -0.492676H106.02V15.7418H107.982V7.21384Z" fill="white"/>
<path id="Vector_2" fill-rule="evenodd" clip-rule="evenodd" d="M126.602 2.45079L129.912 11.0221L131.716 15.7422H133.929L127.654 -0.490234H125.53L119.278 15.7422H121.468L124.069 9.01599L126.602 2.45079Z" fill="white"/>
<path id="Vector_3" fill-rule="evenodd" clip-rule="evenodd" d="M133.54 -0.490234V1.51585H137.831V15.7422H139.885V1.51585H144.176V-0.490234H133.54Z" fill="white"/>
<path id="Vector_4" fill-rule="evenodd" clip-rule="evenodd" d="M104.488 15.7422L98.2114 -0.490234H96.0895L89.8374 15.7422H92.0275L97.1618 2.45079L102.276 15.7422H104.488Z" fill="white"/>
<path id="Vector_5" fill-rule="evenodd" clip-rule="evenodd" d="M74.3414 1.49268C73.017 0.398827 71.5108 -0.309083 70.0273 -0.558812C67.9178 -0.909671 65.5769 -0.317339 64.2525 1.44728C63.7732 2.15312 63.5004 2.95184 63.5004 3.79597C63.5004 5.30053 64.2298 6.53061 65.5996 7.35203C66.6265 7.94436 69.1823 8.46859 69.3434 8.49129C71.1244 8.83389 72.9488 9.44893 72.9488 11.1578C72.9488 12.5489 71.922 13.232 71.329 13.5065C70.4385 13.9172 69.3207 14.008 68.1802 13.7583C66.8331 13.4838 65.488 12.778 64.2773 11.7295L62.9302 13.2568C64.4137 14.5343 66.079 15.3764 67.7691 15.719C68.3166 15.8325 68.8641 15.9006 69.4116 15.9006C70.4158 15.9006 71.3063 15.7644 72.174 15.331C72.9964 14.9203 73.7257 14.396 74.205 13.7129C74.7298 12.9616 74.9798 12.0948 74.9798 11.1599C74.9798 9.58721 74.205 8.30967 72.7216 7.49031C71.6492 6.87527 69.8455 6.57808 68.9777 6.37375C66.8785 5.91763 65.5542 5.3253 65.5542 3.77533C65.5542 2.95391 66.1017 2.15725 67.0376 1.72384C68.4075 1.0861 70.6885 1.1315 73.0398 3.06948L74.3414 1.49681V1.49268Z" fill="white"/>
<path id="Vector_6" fill-rule="evenodd" clip-rule="evenodd" d="M61.7649 15.7422L55.4901 -0.490234H53.3661L47.114 15.7422H49.3041L51.1078 11.0221L51.9054 9.01599L54.4384 2.45079L56.9488 9.01599L57.7484 11.0221L59.5521 15.7422H61.7649Z" fill="white"/>
<path id="Vector_7" fill-rule="evenodd" clip-rule="evenodd" d="M38.8288 4.86759L44.5107 -0.490234H41.5913L33.7627 6.87368V-0.490234H31.7317V15.7422H33.7627V9.60832L37.2772 6.30405L44.0107 15.7422H46.5892L38.8288 4.86759Z" fill="white"/>
<path id="Vector_8" fill-rule="evenodd" clip-rule="evenodd" d="M28.4216 9.792V-0.490234H26.3679V9.792C26.3679 12.0953 24.5187 13.9858 22.2149 13.9858C19.9112 13.9858 18.062 12.0932 18.062 9.792V-0.490234H16.031V9.792C16.031 13.2118 18.8161 15.9692 22.2149 15.9692C25.6137 15.9692 28.4237 13.2098 28.4237 9.792H28.4216Z" fill="white"/>
<path id="Vector_9" fill-rule="evenodd" clip-rule="evenodd" d="M12.4009 15.7422V-0.490234H10.2336L5.18807 6.44027L0.144644 -0.490234H-2V15.7422H0.0310066V2.79339L5.18807 9.86011L10.3699 2.79339V15.7422H12.4009Z" fill="white"/>
<path id="Vector_10" fill-rule="evenodd" clip-rule="evenodd" d="M86.7568 3.06536L88.0585 1.49268C86.7341 0.398827 85.2279 -0.309083 83.7444 -0.558812C81.6349 -0.909671 79.2939 -0.317339 77.9695 1.44728C77.4902 2.15312 77.2175 2.95184 77.2175 3.79597C77.2175 5.30053 77.9468 6.53061 79.3167 7.35203C80.3435 7.94436 82.8993 8.46859 83.0605 8.49129C84.8394 8.83389 86.6659 9.44893 86.6659 11.1578C86.6659 12.5489 85.639 13.232 85.046 13.5065C84.1555 13.9172 83.0378 14.008 81.8973 13.7583C80.5501 13.4838 79.2051 12.778 77.9943 11.7295L76.6472 13.2568C78.1307 14.5343 79.796 15.3764 81.4861 15.719C82.0336 15.8325 82.5811 15.9006 83.1287 15.9006C84.1328 15.9006 85.0233 15.7644 85.8911 15.331C86.7134 14.9203 87.4427 14.396 87.9221 13.7129C88.4469 12.9616 88.6969 12.0948 88.6969 11.1599C88.6969 9.58721 87.9221 8.30967 86.4386 7.49031C85.3663 6.87527 83.5626 6.57808 82.6948 6.37375C80.5956 5.91763 79.2712 5.3253 79.2712 3.77533C79.2712 2.95391 79.8187 2.15725 80.7547 1.72384C82.1245 1.0861 84.4055 1.1315 86.7568 3.06948V3.06536Z" fill="white"/>
</g>
<g id="Group 473">
<g id="Rectangle 53" filter="url(#filter0_bd_0_1)">
<rect x="-144" y="-17" width="428" height="50" fill="white" fill-opacity="0" shape-rendering="crispEdges"/>
</g>
<g id="Group 449">
<path id="Vector_11" fill-rule="evenodd" clip-rule="evenodd" d="M109.388 5.68631H105.852V2.04529H109.388C110.398 2.04529 111.211 2.85772 111.211 3.8668C111.211 4.87587 110.398 5.6883 109.388 5.6883V5.68631ZM105.852 7.57337H108.093L114.067 15.7791H116.33L110.289 7.46412C111.891 7.04698 113.1 5.59891 113.1 3.86481C113.1 1.84268 111.412 0.15625 109.388 0.15625H103.963V15.7811H105.852V7.57337Z" fill="#393939"/>
<path id="Vector_12" fill-rule="evenodd" clip-rule="evenodd" d="M123.773 2.98927L126.958 11.2387L128.694 15.7815H130.824L124.785 0.158691H122.741L116.723 15.7815H118.831L121.335 9.30793L123.773 2.98927Z" fill="#393939"/>
<path id="Vector_13" fill-rule="evenodd" clip-rule="evenodd" d="M130.45 0.158691V2.08945H134.58V15.7815H136.557V2.08945H140.687V0.158691H130.45Z" fill="#393939"/>
<path id="Vector_14" fill-rule="evenodd" clip-rule="evenodd" d="M102.489 15.7815L96.4482 0.158691H94.406L88.3887 15.7815H90.4965L95.4381 2.98927L100.36 15.7815H102.489Z" fill="#393939"/>
<path id="Vector_15" fill-rule="evenodd" clip-rule="evenodd" d="M73.4747 2.06729C72.2 1.01452 70.7504 0.33319 69.3226 0.0928388C67.2923 -0.244845 65.0393 0.325244 63.7646 2.02359C63.3033 2.70293 63.0408 3.47166 63.0408 4.28409C63.0408 5.73215 63.7427 6.91603 65.0611 7.70661C66.0494 8.2767 68.5093 8.78124 68.6644 8.80309C70.3785 9.13283 72.1344 9.72476 72.1344 11.3695C72.1344 12.7083 71.1461 13.3658 70.5754 13.63C69.7183 14.0253 68.6425 14.1127 67.5448 13.8723C66.2483 13.6081 64.9538 12.9288 63.7885 11.9197L62.4919 13.3896C63.9197 14.6192 65.5225 15.4296 67.1491 15.7594C67.6761 15.8686 68.203 15.9342 68.73 15.9342C69.6964 15.9342 70.5535 15.8031 71.3887 15.3859C72.1801 14.9906 72.8821 14.4861 73.3434 13.8286C73.8485 13.1056 74.0891 12.2713 74.0891 11.3715C74.0891 9.85785 73.3434 8.62829 71.9156 7.8397C70.8836 7.24776 69.1476 6.96172 68.3124 6.76507C66.292 6.32608 65.0174 5.75599 65.0174 4.26422C65.0174 3.47365 65.5444 2.70691 66.4452 2.28977C67.7636 1.67598 69.9589 1.71968 72.2219 3.58488L73.4747 2.07127V2.06729Z" fill="#393939"/>
<path id="Vector_16" fill-rule="evenodd" clip-rule="evenodd" d="M61.3705 15.7815L55.3313 0.158691H53.2871L47.2698 15.7815H49.3776L51.1136 11.2387L51.8812 9.30793L54.3192 2.98927L56.7352 9.30793L57.5048 11.2387L59.2408 15.7815H61.3705Z" fill="#393939"/>
<path id="Vector_17" fill-rule="evenodd" clip-rule="evenodd" d="M39.2957 5.31532L44.7642 0.158691H41.9544L34.4198 7.24607V0.158691H32.4651V15.7815H34.4198V9.87802L37.8023 6.69783L44.283 15.7815H46.7647L39.2957 5.31532Z" fill="#393939"/>
<path id="Vector_18" fill-rule="evenodd" clip-rule="evenodd" d="M29.2793 10.0548V0.158691H27.3027V10.0548C27.3027 12.2716 25.5229 14.0911 23.3057 14.0911C21.0885 14.0911 19.3087 12.2696 19.3087 10.0548V0.158691H17.354V10.0548C17.354 13.3462 20.0346 16 23.3057 16C26.5769 16 29.2813 13.3442 29.2813 10.0548H29.2793Z" fill="#393939"/>
<path id="Vector_19" fill-rule="evenodd" clip-rule="evenodd" d="M13.8601 15.7815V0.158691H11.7742L6.91814 6.82894L2.06411 0.158691H0V15.7815H1.95474V3.31901L6.91814 10.1204L11.9054 3.31901V15.7815H13.8601Z" fill="#393939"/>
<path id="Vector_20" fill-rule="evenodd" clip-rule="evenodd" d="M85.4238 3.58091L86.6766 2.06729C85.4019 1.01452 83.9523 0.33319 82.5245 0.0928388C80.4942 -0.244845 78.2412 0.325244 76.9665 2.02359C76.5052 2.70293 76.2427 3.47166 76.2427 4.28409C76.2427 5.73215 76.9446 6.91603 78.263 7.70661C79.2514 8.2767 81.7112 8.78124 81.8663 8.80309C83.5784 9.13283 85.3363 9.72476 85.3363 11.3695C85.3363 12.7083 84.348 13.3658 83.7773 13.63C82.9202 14.0253 81.8444 14.1127 80.7467 13.8723C79.4502 13.6081 78.1557 12.9288 76.9904 11.9197L75.6938 13.3896C77.1216 14.6192 78.7244 15.4296 80.351 15.7594C80.878 15.8686 81.4049 15.9342 81.9319 15.9342C82.8983 15.9342 83.7554 15.8031 84.5906 15.3859C85.382 14.9906 86.084 14.4861 86.5453 13.8286C87.0504 13.1056 87.291 12.2713 87.291 11.3715C87.291 9.85785 86.5453 8.62829 85.1176 7.8397C84.0855 7.24776 82.3495 6.96172 81.5143 6.76507C79.494 6.32608 78.2193 5.75599 78.2193 4.26422C78.2193 3.47365 78.7463 2.70691 79.6471 2.28977C80.9655 1.67598 83.1608 1.71968 85.4238 3.58488V3.58091Z" fill="#393939"/>
</g>
</g>
</g>
<defs>
<filter id="filter0_bd_0_1" x="-178" y="-51" width="496" height="118" filterUnits="userSpaceOnUse" color-interpolation-filters="sRGB">
<feFlood flood-opacity="0" result="BackgroundImageFix"/>
<feGaussianBlur in="BackgroundImageFix" stdDeviation="17"/>
<feComposite in2="SourceAlpha" operator="in" result="effect1_backgroundBlur_0_1"/>
<!-- <feColorMatrix in="SourceAlpha" type="matrix" values="0 0 0 0 0 0 0 0 0 0 0 0 0 0 0 0 0 0 127 0" result="hardAlpha"/> -->
<feOffset dy="-2"/>
<feGaussianBlur stdDeviation="12"/>
<feComposite in2="hardAlpha" operator="out"/>
<feColorMatrix type="matrix" values="0 0 0 0 0 0 0 0 0 0 0 0 0 0 0 0 0 0 0.25 0"/>
<feBlend mode="normal" in2="effect1_backgroundBlur_0_1" result="effect2_dropShadow_0_1"/>
<feBlend mode="normal" in="SourceGraphic" in2="effect2_dropShadow_0_1" result="shape"/>
</filter>
<clipPath id="clip0_0_1">
<rect width="428" height="1533" fill="white" transform="translate(-144 -17)"/>
</clipPath>
</defs>
</svg>
