<svg width="428" height="72" viewBox="0 0 428 72" fill="none" xmlns="http://www.w3.org/2000/svg">
<g filter="url(#filter0_bd_22_4694)">
<rect width="428" height="50" fill="white" fill-opacity="0.5" shape-rendering="crispEdges"/>
</g>
<path fill-rule="evenodd" clip-rule="evenodd" d="M253.388 22.6863H249.852V19.0453H253.388C254.398 19.0453 255.211 19.8577 255.211 20.8668C255.211 21.8759 254.398 22.6883 253.388 22.6883V22.6863ZM249.852 24.5734H252.093L258.067 32.7791H260.33L254.289 24.4641C255.891 24.047 257.1 22.5989 257.1 20.8648C257.1 18.8427 255.412 17.1562 253.388 17.1562H247.963V32.7811H249.852V24.5734Z" fill="#393939"/>
<path fill-rule="evenodd" clip-rule="evenodd" d="M267.773 19.9893L270.958 28.2387L272.694 32.7815H274.824L268.785 17.1587H266.741L260.723 32.7815H262.831L265.335 26.3079L267.773 19.9893Z" fill="#393939"/>
<path fill-rule="evenodd" clip-rule="evenodd" d="M274.45 17.1587V19.0894H278.58V32.7815H280.557V19.0894H284.687V17.1587H274.45Z" fill="#393939"/>
<path fill-rule="evenodd" clip-rule="evenodd" d="M246.489 32.7815L240.448 17.1587H238.406L232.389 32.7815H234.497L239.438 19.9893L244.36 32.7815H246.489Z" fill="#393939"/>
<path fill-rule="evenodd" clip-rule="evenodd" d="M217.475 19.0673C216.2 18.0145 214.75 17.3332 213.323 17.0928C211.292 16.7552 209.039 17.3252 207.765 19.0236C207.303 19.7029 207.041 20.4717 207.041 21.2841C207.041 22.7322 207.743 23.916 209.061 24.7066C210.049 25.2767 212.509 25.7812 212.664 25.8031C214.378 26.1328 216.134 26.7248 216.134 28.3695C216.134 29.7083 215.146 30.3658 214.575 30.63C213.718 31.0253 212.643 31.1127 211.545 30.8723C210.248 30.6081 208.954 29.9288 207.788 28.9197L206.492 30.3896C207.92 31.6192 209.522 32.4296 211.149 32.7594C211.676 32.8686 212.203 32.9342 212.73 32.9342C213.696 32.9342 214.553 32.8031 215.389 32.3859C216.18 31.9906 216.882 31.4861 217.343 30.8286C217.849 30.1056 218.089 29.2713 218.089 28.3715C218.089 26.8579 217.343 25.6283 215.916 24.8397C214.884 24.2478 213.148 23.9617 212.312 23.7651C210.292 23.3261 209.017 22.756 209.017 21.2642C209.017 20.4736 209.544 19.7069 210.445 19.2898C211.764 18.676 213.959 18.7197 216.222 20.5849L217.475 19.0713V19.0673Z" fill="#393939"/>
<path fill-rule="evenodd" clip-rule="evenodd" d="M205.371 32.7815L199.331 17.1587H197.287L191.27 32.7815H193.378L195.114 28.2387L195.881 26.3079L198.319 19.9893L200.735 26.3079L201.505 28.2387L203.241 32.7815H205.371Z" fill="#393939"/>
<path fill-rule="evenodd" clip-rule="evenodd" d="M183.296 22.3153L188.764 17.1587H185.954L178.42 24.2461V17.1587H176.465V32.7815H178.42V26.878L181.802 23.6978L188.283 32.7815H190.765L183.296 22.3153Z" fill="#393939"/>
<path fill-rule="evenodd" clip-rule="evenodd" d="M173.279 27.0548V17.1587H171.303V27.0548C171.303 29.2716 169.523 31.0911 167.306 31.0911C165.088 31.0911 163.309 29.2696 163.309 27.0548V17.1587H161.354V27.0548C161.354 30.3462 164.035 33 167.306 33C170.577 33 173.281 30.3442 173.281 27.0548H173.279Z" fill="#393939"/>
<path fill-rule="evenodd" clip-rule="evenodd" d="M157.86 32.7815V17.1587H155.774L150.918 23.8289L146.064 17.1587H144V32.7815H145.955V20.319L150.918 27.1204L155.905 20.319V32.7815H157.86Z" fill="#393939"/>
<path fill-rule="evenodd" clip-rule="evenodd" d="M229.424 20.5809L230.677 19.0673C229.402 18.0145 227.952 17.3332 226.524 17.0928C224.494 16.7552 222.241 17.3252 220.967 19.0236C220.505 19.7029 220.243 20.4717 220.243 21.2841C220.243 22.7322 220.945 23.916 222.263 24.7066C223.251 25.2767 225.711 25.7812 225.866 25.8031C227.578 26.1328 229.336 26.7248 229.336 28.3695C229.336 29.7083 228.348 30.3658 227.777 30.63C226.92 31.0253 225.844 31.1127 224.747 30.8723C223.45 30.6081 222.156 29.9288 220.99 28.9197L219.694 30.3896C221.122 31.6192 222.724 32.4296 224.351 32.7594C224.878 32.8686 225.405 32.9342 225.932 32.9342C226.898 32.9342 227.755 32.8031 228.591 32.3859C229.382 31.9906 230.084 31.4861 230.545 30.8286C231.05 30.1056 231.291 29.2713 231.291 28.3715C231.291 26.8579 230.545 25.6283 229.118 24.8397C228.085 24.2478 226.35 23.9617 225.514 23.7651C223.494 23.3261 222.219 22.756 222.219 21.2642C222.219 20.4736 222.746 19.7069 223.647 19.2898C224.965 18.676 227.161 18.7197 229.424 20.5849V20.5809Z" fill="#393939"/>
<defs>
<filter id="filter0_bd_22_4694" x="-34" y="-34" width="496" height="118" filterUnits="userSpaceOnUse" color-interpolation-filters="sRGB">
<feFlood flood-opacity="0" result="BackgroundImageFix"/>
<feGaussianBlur in="BackgroundImageFix" stdDeviation="17"/>
<feComposite in2="SourceAlpha" operator="in" result="effect1_backgroundBlur_22_4694"/>
<feColorMatrix in="SourceAlpha" type="matrix" values="0 0 0 0 0 0 0 0 0 0 0 0 0 0 0 0 0 0 127 0" result="hardAlpha"/>
<feOffset dy="-2"/>
<feGaussianBlur stdDeviation="12"/>
<feComposite in2="hardAlpha" operator="out"/>
<feColorMatrix type="matrix" values="0 0 0 0 0 0 0 0 0 0 0 0 0 0 0 0 0 0 0.25 0"/>
<feBlend mode="normal" in2="effect1_backgroundBlur_22_4694" result="effect2_dropShadow_22_4694"/>
<feBlend mode="normal" in="SourceGraphic" in2="effect2_dropShadow_22_4694" result="shape"/>
</filter>
</defs>
</svg>
