<svg width="141" height="16" viewBox="0 0 141 16" fill="none" xmlns="http://www.w3.org/2000/svg">
<path fill-rule="evenodd" clip-rule="evenodd" d="M109.388 5.68631H105.852V2.04529H109.388C110.398 2.04529 111.211 2.85772 111.211 3.8668C111.211 4.87587 110.398 5.6883 109.388 5.6883V5.68631ZM105.852 7.57337H108.093L114.067 15.7791H116.33L110.289 7.46412C111.891 7.04698 113.1 5.59891 113.1 3.86481C113.1 1.84268 111.412 0.15625 109.388 0.15625H103.963V15.7811H105.852V7.57337V7.57337Z" fill="#393939"/>
<path fill-rule="evenodd" clip-rule="evenodd" d="M123.773 2.98927L126.959 11.2387L128.695 15.7815H130.824L124.785 0.158691H122.741L116.723 15.7815H118.831L121.335 9.30793L123.773 2.98927Z" fill="#393939"/>
<path fill-rule="evenodd" clip-rule="evenodd" d="M130.45 0.158691V2.08945H134.58V15.7815H136.557V2.08945H140.687V0.158691H130.45Z" fill="#393939"/>
<path fill-rule="evenodd" clip-rule="evenodd" d="M102.489 15.7815L96.4483 0.158691H94.4061L88.3887 15.7815H90.4966L95.4381 2.98927L100.36 15.7815H102.489Z" fill="#393939"/>
<path fill-rule="evenodd" clip-rule="evenodd" d="M73.4746 2.06729C72.2 1.01452 70.7503 0.33319 69.3226 0.0928388C67.2923 -0.244845 65.0392 0.325244 63.7646 2.02359C63.3032 2.70293 63.0407 3.47166 63.0407 4.28409C63.0407 5.73215 63.7427 6.91603 65.0611 7.70661C66.0494 8.2767 68.5092 8.78124 68.6643 8.80309C70.3785 9.13283 72.1344 9.72477 72.1344 11.3695C72.1344 12.7083 71.146 13.3658 70.5753 13.63C69.7183 14.0253 68.6425 14.1127 67.5448 13.8723C66.2483 13.6081 64.9537 12.9288 63.7884 11.9197L62.4919 13.3896C63.9197 14.6192 65.5224 15.4296 67.1491 15.7594C67.676 15.8686 68.203 15.9342 68.73 15.9342C69.6964 15.9342 70.5535 15.8031 71.3887 15.3859C72.1801 14.9906 72.882 14.4861 73.3434 13.8286C73.8485 13.1056 74.0891 12.2713 74.0891 11.3715C74.0891 9.85785 73.3434 8.62829 71.9156 7.8397C70.8836 7.24776 69.1476 6.96172 68.3124 6.76507C66.292 6.32608 65.0174 5.75599 65.0174 4.26422C65.0174 3.47365 65.5443 2.70691 66.4451 2.28977C67.7635 1.67598 69.9589 1.71968 72.2219 3.58488L73.4746 2.07127V2.06729Z" fill="#393939"/>
<path fill-rule="evenodd" clip-rule="evenodd" d="M61.3704 15.7815L55.3312 0.158691H53.287L47.2697 15.7815H49.3775L51.1135 11.2387L51.8811 9.30793L54.319 2.98927L56.7351 9.30793L57.5047 11.2387L59.2407 15.7815H61.3704Z" fill="#393939"/>
<path fill-rule="evenodd" clip-rule="evenodd" d="M39.2956 5.31532L44.7641 0.158691H41.9543L34.4197 7.24607V0.158691H32.465V15.7815H34.4197V9.87802L37.8022 6.69783L44.2829 15.7815H46.7646L39.2956 5.31532Z" fill="#393939"/>
<path fill-rule="evenodd" clip-rule="evenodd" d="M29.2793 10.0548V0.158691H27.3027V10.0548C27.3027 12.2716 25.5229 14.0911 23.3057 14.0911C21.0885 14.0911 19.3087 12.2696 19.3087 10.0548V0.158691H17.354V10.0548C17.354 13.3462 20.0345 16 23.3057 16C26.5768 16 29.2813 13.3442 29.2813 10.0548H29.2793Z" fill="#393939"/>
<path fill-rule="evenodd" clip-rule="evenodd" d="M13.8601 15.7815V0.158691H11.7742L6.91814 6.82894L2.06411 0.158691H0V15.7815H1.95474V3.31901L6.91814 10.1204L11.9054 3.31901V15.7815H13.8601Z" fill="#393939"/>
<path fill-rule="evenodd" clip-rule="evenodd" d="M85.4238 3.58091L86.6766 2.06729C85.4019 1.01452 83.9523 0.33319 82.5245 0.0928388C80.4942 -0.244845 78.2412 0.325244 76.9665 2.02359C76.5052 2.70293 76.2427 3.47166 76.2427 4.28409C76.2427 5.73215 76.9446 6.91603 78.263 7.70661C79.2514 8.2767 81.7112 8.78124 81.8663 8.80309C83.5784 9.13283 85.3363 9.72477 85.3363 11.3695C85.3363 12.7083 84.348 13.3658 83.7773 13.63C82.9202 14.0253 81.8444 14.1127 80.7467 13.8723C79.4502 13.6081 78.1557 12.9288 76.9904 11.9197L75.6938 13.3896C77.1216 14.6192 78.7244 15.4296 80.351 15.7594C80.878 15.8686 81.4049 15.9342 81.9319 15.9342C82.8983 15.9342 83.7554 15.8031 84.5906 15.3859C85.382 14.9906 86.084 14.4861 86.5453 13.8286C87.0504 13.1056 87.291 12.2713 87.291 11.3715C87.291 9.85785 86.5453 8.62829 85.1176 7.8397C84.0855 7.24776 82.3495 6.96172 81.5143 6.76507C79.494 6.32608 78.2193 5.75599 78.2193 4.26422C78.2193 3.47365 78.7463 2.70691 79.6471 2.28977C80.9655 1.67598 83.1608 1.71968 85.4238 3.58488V3.58091Z" fill="#393939"/>
</svg>
